<mxfile host="app.diagrams.net" modified="2023-05-07T13:43:22.945Z" agent="Mozilla/5.0 (Windows NT 10.0; Win64; x64) AppleWebKit/537.36 (KHTML, like Gecko) Chrome/112.0.0.0 Safari/537.36" etag="WKJ9DHlQcDGjtL0SJvL8" version="21.1.4" type="device">
  <diagram name="Страница 1" id="DuWnGMJOH_msi-D3Dzdb">
    <mxGraphModel dx="2514" dy="899" grid="1" gridSize="10" guides="1" tooltips="1" connect="1" arrows="1" fold="1" page="1" pageScale="1" pageWidth="827" pageHeight="1169" math="0" shadow="0">
      <root>
        <mxCell id="0" />
        <mxCell id="1" parent="0" />
        <mxCell id="Jg6dPiozKQvW8HVjzjMP-48" style="edgeStyle=orthogonalEdgeStyle;rounded=0;orthogonalLoop=1;jettySize=auto;html=1;exitX=0.5;exitY=1;exitDx=0;exitDy=0;entryX=0.5;entryY=0;entryDx=0;entryDy=0;" edge="1" parent="1" source="Jg6dPiozKQvW8HVjzjMP-44" target="Jg6dPiozKQvW8HVjzjMP-46">
          <mxGeometry relative="1" as="geometry" />
        </mxCell>
        <mxCell id="Jg6dPiozKQvW8HVjzjMP-44" value="&lt;font style=&quot;font-size: 40px;&quot;&gt;Def1&lt;/font&gt;" style="whiteSpace=wrap;html=1;aspect=fixed;" vertex="1" parent="1">
          <mxGeometry x="-20" width="330" height="330" as="geometry" />
        </mxCell>
        <mxCell id="Jg6dPiozKQvW8HVjzjMP-47" style="edgeStyle=orthogonalEdgeStyle;rounded=0;orthogonalLoop=1;jettySize=auto;html=1;exitX=0.5;exitY=1;exitDx=0;exitDy=0;entryX=0.5;entryY=0;entryDx=0;entryDy=0;" edge="1" parent="1" source="Jg6dPiozKQvW8HVjzjMP-45" target="Jg6dPiozKQvW8HVjzjMP-46">
          <mxGeometry relative="1" as="geometry" />
        </mxCell>
        <mxCell id="Jg6dPiozKQvW8HVjzjMP-45" value="&lt;font style=&quot;font-size: 40px;&quot;&gt;Def2&lt;/font&gt;" style="whiteSpace=wrap;html=1;aspect=fixed;" vertex="1" parent="1">
          <mxGeometry x="497" width="330" height="330" as="geometry" />
        </mxCell>
        <mxCell id="Jg6dPiozKQvW8HVjzjMP-46" value="&lt;font style=&quot;font-size: 40px;&quot;&gt;Print(Def1 , Def2)&lt;/font&gt;" style="whiteSpace=wrap;html=1;aspect=fixed;" vertex="1" parent="1">
          <mxGeometry x="230" y="470" width="310" height="310" as="geometry" />
        </mxCell>
      </root>
    </mxGraphModel>
  </diagram>
</mxfile>
